<svg xmlns="http://www.w3.org/2000/svg" width="175.151" height="76.302" viewBox="0 0 175.151 76.302">
  <g id="Grupo_2" data-name="Grupo 2" transform="translate(-539 149)">
    <path id="Trazado_11" data-name="Trazado 11" d="M15.389-34.548l-2.9-4.188h-3.2v4.188H5.81V-49.582h6.508a8.352,8.352,0,0,1,3.469.666,5.153,5.153,0,0,1,2.266,1.89,5.207,5.207,0,0,1,.795,2.9,5.1,5.1,0,0,1-.805,2.889,5.1,5.1,0,0,1-2.287,1.858l3.372,4.832Zm-.064-9.579a2.381,2.381,0,0,0-.816-1.944,3.654,3.654,0,0,0-2.384-.677H9.289v5.241h2.835a3.614,3.614,0,0,0,2.384-.687A2.388,2.388,0,0,0,15.325-44.127ZM33.237-37.34v2.792H21.6V-49.582H32.958v2.792h-7.9v3.265h6.98v2.706h-6.98v3.479Zm7.71,3.05a12.3,12.3,0,0,1-3.447-.483,8.085,8.085,0,0,1-2.674-1.256l1.181-2.62a8.016,8.016,0,0,0,2.3,1.138,8.632,8.632,0,0,0,2.663.43,4.255,4.255,0,0,0,2.191-.44,1.33,1.33,0,0,0,.709-1.171,1.119,1.119,0,0,0-.419-.891,3.175,3.175,0,0,0-1.074-.569q-.655-.215-1.772-.473a24.5,24.5,0,0,1-2.814-.816,4.571,4.571,0,0,1-1.879-1.31,3.538,3.538,0,0,1-.784-2.406,4.184,4.184,0,0,1,.709-2.373,4.768,4.768,0,0,1,2.137-1.686,8.72,8.72,0,0,1,3.49-.623,11.557,11.557,0,0,1,2.814.344,8.312,8.312,0,0,1,2.405.988l-1.074,2.642a8.383,8.383,0,0,0-4.167-1.181,3.907,3.907,0,0,0-2.159.473,1.442,1.442,0,0,0-.7,1.246,1.218,1.218,0,0,0,.805,1.149,12.645,12.645,0,0,0,2.459.741,24.494,24.494,0,0,1,2.814.816,4.659,4.659,0,0,1,1.879,1.289,3.455,3.455,0,0,1,.784,2.384,4.105,4.105,0,0,1-.72,2.352,4.834,4.834,0,0,1-2.159,1.686A8.8,8.8,0,0,1,40.948-34.29Zm16.044,0a8.776,8.776,0,0,1-4.22-1.009,7.492,7.492,0,0,1-2.942-2.781,7.593,7.593,0,0,1-1.063-3.984,7.593,7.593,0,0,1,1.063-3.984,7.492,7.492,0,0,1,2.942-2.781,8.775,8.775,0,0,1,4.22-1.009,8.713,8.713,0,0,1,4.21,1.009,7.589,7.589,0,0,1,2.942,2.781,7.535,7.535,0,0,1,1.074,3.984,7.535,7.535,0,0,1-1.074,3.984A7.589,7.589,0,0,1,61.2-35.3,8.713,8.713,0,0,1,56.991-34.29Zm0-2.964a4.771,4.771,0,0,0,2.406-.612,4.393,4.393,0,0,0,1.686-1.707,5.019,5.019,0,0,0,.612-2.491,5.019,5.019,0,0,0-.612-2.491A4.393,4.393,0,0,0,59.4-46.264a4.771,4.771,0,0,0-2.406-.612,4.771,4.771,0,0,0-2.406.612A4.393,4.393,0,0,0,52.9-44.556a5.019,5.019,0,0,0-.612,2.491,5.019,5.019,0,0,0,.612,2.491,4.393,4.393,0,0,0,1.686,1.707A4.771,4.771,0,0,0,56.991-37.254ZM74.517-34.29A6.8,6.8,0,0,1,69.5-36.073a6.863,6.863,0,0,1-1.793-5.09v-8.419h3.479v8.29q0,4.038,3.351,4.038a3.14,3.14,0,0,0,2.491-.977,4.555,4.555,0,0,0,.859-3.061v-8.29h3.436v8.419a6.863,6.863,0,0,1-1.793,5.09A6.8,6.8,0,0,1,74.517-34.29Zm19.824-.258-2.9-4.188h-3.2v4.188H84.762V-49.582H91.27a8.352,8.352,0,0,1,3.469.666A5.153,5.153,0,0,1,97-47.026a5.207,5.207,0,0,1,.795,2.9,5.1,5.1,0,0,1-.805,2.889,5.1,5.1,0,0,1-2.287,1.858l3.372,4.832Zm-.064-9.579a2.381,2.381,0,0,0-.816-1.944,3.654,3.654,0,0,0-2.384-.677H88.242v5.241h2.835a3.614,3.614,0,0,0,2.384-.687A2.388,2.388,0,0,0,94.277-44.127Zm13.467,9.837a8.636,8.636,0,0,1-4.156-1,7.453,7.453,0,0,1-2.921-2.771A7.633,7.633,0,0,1,99.6-42.065a7.633,7.633,0,0,1,1.063-4.006,7.453,7.453,0,0,1,2.921-2.771,8.681,8.681,0,0,1,4.177-1,8.762,8.762,0,0,1,3.533.687,7.077,7.077,0,0,1,2.652,1.976l-2.234,2.062a4.8,4.8,0,0,0-3.78-1.761,5.019,5.019,0,0,0-2.491.612,4.352,4.352,0,0,0-1.707,1.707,5.019,5.019,0,0,0-.612,2.491,5.019,5.019,0,0,0,.612,2.491,4.352,4.352,0,0,0,1.707,1.707,5.019,5.019,0,0,0,2.491.612,4.779,4.779,0,0,0,3.78-1.783l2.234,2.062a6.963,6.963,0,0,1-2.663,2A8.839,8.839,0,0,1,107.743-34.29Zm20.189-3.05v2.792H116.291V-49.582h11.362v2.792h-7.9v3.265h6.98v2.706h-6.98v3.479Zm7.711,3.05a12.3,12.3,0,0,1-3.447-.483,8.085,8.085,0,0,1-2.674-1.256l1.181-2.62a8.016,8.016,0,0,0,2.3,1.138,8.632,8.632,0,0,0,2.663.43,4.255,4.255,0,0,0,2.191-.44,1.33,1.33,0,0,0,.709-1.171,1.119,1.119,0,0,0-.419-.891,3.175,3.175,0,0,0-1.074-.569q-.655-.215-1.772-.473a24.493,24.493,0,0,1-2.814-.816,4.571,4.571,0,0,1-1.879-1.31,3.538,3.538,0,0,1-.784-2.406,4.184,4.184,0,0,1,.709-2.373,4.768,4.768,0,0,1,2.137-1.686,8.72,8.72,0,0,1,3.49-.623,11.557,11.557,0,0,1,2.814.344,8.312,8.312,0,0,1,2.406.988L140.3-45.867a8.383,8.383,0,0,0-4.167-1.181,3.907,3.907,0,0,0-2.159.473,1.442,1.442,0,0,0-.7,1.246,1.218,1.218,0,0,0,.805,1.149,12.646,12.646,0,0,0,2.459.741,24.5,24.5,0,0,1,2.814.816,4.659,4.659,0,0,1,1.879,1.289,3.455,3.455,0,0,1,.784,2.384,4.105,4.105,0,0,1-.72,2.352,4.834,4.834,0,0,1-2.159,1.686A8.8,8.8,0,0,1,135.643-34.29Zm10.223-.086a2.014,2.014,0,0,1-1.482-.6,2.04,2.04,0,0,1-.6-1.5,1.96,1.96,0,0,1,.6-1.493,2.074,2.074,0,0,1,1.482-.569,2.074,2.074,0,0,1,1.482.569,1.961,1.961,0,0,1,.6,1.493,2.04,2.04,0,0,1-.6,1.5A2.014,2.014,0,0,1,145.866-34.376Zm11.362.086a8.636,8.636,0,0,1-4.156-1,7.454,7.454,0,0,1-2.921-2.771,7.634,7.634,0,0,1-1.063-4.006,7.634,7.634,0,0,1,1.063-4.006,7.454,7.454,0,0,1,2.921-2.771,8.681,8.681,0,0,1,4.177-1,8.762,8.762,0,0,1,3.533.687,7.077,7.077,0,0,1,2.652,1.976L161.2-45.115a4.8,4.8,0,0,0-3.78-1.761,5.02,5.02,0,0,0-2.491.612,4.352,4.352,0,0,0-1.707,1.707,5.02,5.02,0,0,0-.612,2.491,5.02,5.02,0,0,0,.612,2.491,4.352,4.352,0,0,0,1.707,1.707,5.02,5.02,0,0,0,2.491.612,4.78,4.78,0,0,0,3.78-1.783l2.234,2.062a6.962,6.962,0,0,1-2.663,2A8.839,8.839,0,0,1,157.228-34.29Zm15.507,0a8.776,8.776,0,0,1-4.22-1.009,7.492,7.492,0,0,1-2.942-2.781,7.593,7.593,0,0,1-1.063-3.984,7.593,7.593,0,0,1,1.063-3.984,7.492,7.492,0,0,1,2.942-2.781,8.775,8.775,0,0,1,4.22-1.009,8.713,8.713,0,0,1,4.21,1.009,7.589,7.589,0,0,1,2.942,2.781,7.535,7.535,0,0,1,1.074,3.984,7.535,7.535,0,0,1-1.074,3.984,7.589,7.589,0,0,1-2.942,2.781A8.713,8.713,0,0,1,172.735-34.29Zm0-2.964a4.771,4.771,0,0,0,2.406-.612,4.393,4.393,0,0,0,1.686-1.707,5.019,5.019,0,0,0,.612-2.491,5.019,5.019,0,0,0-.612-2.491,4.393,4.393,0,0,0-1.686-1.707,4.771,4.771,0,0,0-2.406-.612,4.771,4.771,0,0,0-2.406.612,4.393,4.393,0,0,0-1.686,1.707,5.019,5.019,0,0,0-.612,2.491,5.019,5.019,0,0,0,.612,2.491,4.393,4.393,0,0,0,1.686,1.707A4.771,4.771,0,0,0,172.735-37.254Z" transform="translate(533.19 -38.408)" fill="#fff"/>
    <path id="Trazado_12" data-name="Trazado 12" d="M33.7-4.005,22.836-19.625,12.166-4.005H.21L16.858-26.888,1.046-49H12.873L23.222-34.409,33.377-49H44.626L28.942-27.274,45.719-4.005ZM49.833-49h20.44a28.727,28.727,0,0,1,12.952,2.8,20.935,20.935,0,0,1,8.742,7.874A22.148,22.148,0,0,1,95.084-26.5a22.148,22.148,0,0,1-3.117,11.827A20.935,20.935,0,0,1,83.225-6.8a28.727,28.727,0,0,1-12.952,2.8H49.833ZM69.759-12.554q6.749,0,10.767-3.76T84.543-26.5q0-6.428-4.017-10.188t-10.767-3.76H60.246v27.9Z" transform="translate(538.79 -95.409)" fill="#fff"/>
    <g id="noun_Vector_646024" transform="translate(655.619 -149)">
      <path id="Trazado_1" data-name="Trazado 1" d="M71.31,41a5.1,5.1,0,1,0-4.837-6.726H53.845l-5.638-5.637a1.621,1.621,0,0,0-2.292,0l-5.637,5.637H27.823a5.1,5.1,0,1,0,0,3.242h10.2A21.242,21.242,0,0,0,25.469,50.184h-3.7a1.621,1.621,0,0,0-1.621,1.622v8.644a1.621,1.621,0,0,0,1.621,1.621h8.644a1.621,1.621,0,0,0,1.621-1.621V51.8a1.621,1.621,0,0,0-1.621-1.621H28.933a18.665,18.665,0,0,1,13.41-10.6l3.571,3.571a1.621,1.621,0,0,0,2.292,0l3.522-3.522a18.634,18.634,0,0,1,13.19,10.553H63.435a1.622,1.622,0,0,0-1.621,1.622v8.644a1.621,1.621,0,0,0,1.621,1.621H72.08A1.621,1.621,0,0,0,73.7,60.449V51.8a1.621,1.621,0,0,0-1.621-1.621h-3.7A21.247,21.247,0,0,0,55.841,37.515H66.473A5.112,5.112,0,0,0,71.31,41ZM28.795,58.827h-5.4v-5.4h5.4Zm41.664,0h-5.4v-5.4h5.4Zm.851-24.8a1.863,1.863,0,1,1-1.863,1.863A1.865,1.865,0,0,1,71.31,34.03ZM22.987,37.756a1.863,1.863,0,1,1,1.863-1.863A1.865,1.865,0,0,1,22.987,37.756ZM47.06,39.713l-3.819-3.819,3.819-3.819,3.82,3.819Z" transform="translate(-17.882 -28.161)" fill="#480531"/>
      <path id="Trazado_2" data-name="Trazado 2" d="M63.1,69.834a1.621,1.621,0,0,0-2.923,0L49.573,91.949a1.621,1.621,0,0,0,2,2.231L61.5,90.712l10.228,3.473a1.621,1.621,0,0,0,1.983-2.236Zm-1.09,17.628a1.622,1.622,0,0,0-1.056,0l-6.773,2.366,7.458-15.549,7.478,15.592Z" transform="translate(-32.375 -46.892)" fill="#480531"/>
    </g>
  </g>
</svg>
